<?xml version="1.0" encoding="UTF-8"?>
<svg xmlns="http://www.w3.org/2000/svg" viewBox="0 0 512 512">
  <!-- Monochrome mask for Safari pinned tab. Safari will tint using link color. -->
  <path fill="#000" d="M256 90c8.4 0 15.9 4.7 19.6 12.1l35.9 71.7 79.1 11.5c8.5 1.2 15.6 7.2 18.2 15.4 2.6 8.2 0.4 17.2-5.8 23.2l-57.2 55.8 13.5 78.7c1.5 8.5-2 17.2-9.1 22.3-7.1 5.1-16.4 5.8-24.1 1.9L256 353.1l-71.1 37.5c-7.7 4.1-17 3.3-24.1-1.9-7.1-5.1-10.6-13.8-9.1-22.3l13.5-78.7-57.2-55.8c-6.2-6-8.4-15-5.8-23.2 2.6-8.2 9.7-14.2 18.2-15.4l79.1-11.5 35.9-71.7C240.1 94.7 247.6 90 256 90Z"/>
</svg>

